<mxfile host="app.diagrams.net" modified="2024-03-19T04:47:14.567Z" agent="Mozilla/5.0 (Macintosh; Intel Mac OS X 10_15_7) AppleWebKit/537.36 (KHTML, like Gecko) Chrome/120.0.0.0 Whale/3.24.223.18 Safari/537.36" etag="2f9dtMgJx2rok6TnxFbf" version="24.0.7" type="github">
  <diagram name="페이지-1" id="zxHo8dAMRIaKnlPVU3Zw">
    <mxGraphModel dx="524" dy="997" grid="1" gridSize="10" guides="1" tooltips="1" connect="1" arrows="1" fold="1" page="1" pageScale="1" pageWidth="1169" pageHeight="827" math="0" shadow="0">
      <root>
        <mxCell id="0" />
        <mxCell id="1" parent="0" />
        <mxCell id="qYvuUMzlHFwhiG2a9g9f-66" value="" style="childLayout=tableLayout;recursiveResize=0;shadow=0;fillColor=#f5f5f5;strokeColor=none;opacity=10;fontColor=#333333;" parent="1" vertex="1">
          <mxGeometry x="190" y="360" width="540" height="234" as="geometry" />
        </mxCell>
        <mxCell id="qYvuUMzlHFwhiG2a9g9f-67" value="" style="shape=tableRow;horizontal=0;startSize=0;swimlaneHead=0;swimlaneBody=0;top=0;left=0;bottom=0;right=0;dropTarget=0;collapsible=0;recursiveResize=0;expand=0;fontStyle=0;fillColor=none;strokeColor=inherit;opacity=0;" parent="qYvuUMzlHFwhiG2a9g9f-66" vertex="1">
          <mxGeometry width="540" height="47" as="geometry" />
        </mxCell>
        <mxCell id="qYvuUMzlHFwhiG2a9g9f-68" value="time" style="connectable=0;recursiveResize=0;strokeColor=inherit;fillColor=none;align=center;whiteSpace=wrap;html=1;opacity=30;" parent="qYvuUMzlHFwhiG2a9g9f-67" vertex="1">
          <mxGeometry width="60" height="47" as="geometry">
            <mxRectangle width="60" height="47" as="alternateBounds" />
          </mxGeometry>
        </mxCell>
        <mxCell id="qYvuUMzlHFwhiG2a9g9f-69" value="" style="connectable=0;recursiveResize=0;strokeColor=inherit;fillColor=none;align=center;whiteSpace=wrap;html=1;opacity=30;" parent="qYvuUMzlHFwhiG2a9g9f-67" vertex="1">
          <mxGeometry x="60" width="60" height="47" as="geometry">
            <mxRectangle width="60" height="47" as="alternateBounds" />
          </mxGeometry>
        </mxCell>
        <mxCell id="qYvuUMzlHFwhiG2a9g9f-70" value="" style="connectable=0;recursiveResize=0;strokeColor=inherit;fillColor=none;align=center;whiteSpace=wrap;html=1;opacity=30;" parent="qYvuUMzlHFwhiG2a9g9f-67" vertex="1">
          <mxGeometry x="120" width="60" height="47" as="geometry">
            <mxRectangle width="60" height="47" as="alternateBounds" />
          </mxGeometry>
        </mxCell>
        <mxCell id="qYvuUMzlHFwhiG2a9g9f-79" style="connectable=0;recursiveResize=0;strokeColor=inherit;fillColor=none;align=center;whiteSpace=wrap;html=1;opacity=30;" parent="qYvuUMzlHFwhiG2a9g9f-67" vertex="1">
          <mxGeometry x="180" width="60" height="47" as="geometry">
            <mxRectangle width="60" height="47" as="alternateBounds" />
          </mxGeometry>
        </mxCell>
        <mxCell id="qYvuUMzlHFwhiG2a9g9f-82" style="connectable=0;recursiveResize=0;strokeColor=inherit;fillColor=none;align=center;whiteSpace=wrap;html=1;opacity=30;" parent="qYvuUMzlHFwhiG2a9g9f-67" vertex="1">
          <mxGeometry x="240" width="60" height="47" as="geometry">
            <mxRectangle width="60" height="47" as="alternateBounds" />
          </mxGeometry>
        </mxCell>
        <mxCell id="qYvuUMzlHFwhiG2a9g9f-85" style="connectable=0;recursiveResize=0;strokeColor=inherit;fillColor=none;align=center;whiteSpace=wrap;html=1;opacity=30;" parent="qYvuUMzlHFwhiG2a9g9f-67" vertex="1">
          <mxGeometry x="300" width="60" height="47" as="geometry">
            <mxRectangle width="60" height="47" as="alternateBounds" />
          </mxGeometry>
        </mxCell>
        <mxCell id="qYvuUMzlHFwhiG2a9g9f-88" style="connectable=0;recursiveResize=0;strokeColor=inherit;fillColor=none;align=center;whiteSpace=wrap;html=1;opacity=30;" parent="qYvuUMzlHFwhiG2a9g9f-67" vertex="1">
          <mxGeometry x="360" width="60" height="47" as="geometry">
            <mxRectangle width="60" height="47" as="alternateBounds" />
          </mxGeometry>
        </mxCell>
        <mxCell id="qYvuUMzlHFwhiG2a9g9f-91" style="connectable=0;recursiveResize=0;strokeColor=inherit;fillColor=none;align=center;whiteSpace=wrap;html=1;opacity=30;" parent="qYvuUMzlHFwhiG2a9g9f-67" vertex="1">
          <mxGeometry x="420" width="60" height="47" as="geometry">
            <mxRectangle width="60" height="47" as="alternateBounds" />
          </mxGeometry>
        </mxCell>
        <mxCell id="qYvuUMzlHFwhiG2a9g9f-134" style="connectable=0;recursiveResize=0;strokeColor=inherit;fillColor=none;align=center;whiteSpace=wrap;html=1;opacity=30;" parent="qYvuUMzlHFwhiG2a9g9f-67" vertex="1">
          <mxGeometry x="480" width="60" height="47" as="geometry">
            <mxRectangle width="60" height="47" as="alternateBounds" />
          </mxGeometry>
        </mxCell>
        <mxCell id="qYvuUMzlHFwhiG2a9g9f-71" style="shape=tableRow;horizontal=0;startSize=0;swimlaneHead=0;swimlaneBody=0;top=0;left=0;bottom=0;right=0;dropTarget=0;collapsible=0;recursiveResize=0;expand=0;fontStyle=0;fillColor=none;strokeColor=default;opacity=30;" parent="qYvuUMzlHFwhiG2a9g9f-66" vertex="1">
          <mxGeometry y="47" width="540" height="46" as="geometry" />
        </mxCell>
        <mxCell id="qYvuUMzlHFwhiG2a9g9f-72" value="event" style="connectable=0;recursiveResize=0;strokeColor=inherit;fillColor=none;align=center;whiteSpace=wrap;html=1;opacity=30;" parent="qYvuUMzlHFwhiG2a9g9f-71" vertex="1">
          <mxGeometry width="60" height="46" as="geometry">
            <mxRectangle width="60" height="46" as="alternateBounds" />
          </mxGeometry>
        </mxCell>
        <mxCell id="qYvuUMzlHFwhiG2a9g9f-73" value="" style="connectable=0;recursiveResize=0;strokeColor=default;fillColor=none;align=center;whiteSpace=wrap;html=1;opacity=30;" parent="qYvuUMzlHFwhiG2a9g9f-71" vertex="1">
          <mxGeometry x="60" width="60" height="46" as="geometry">
            <mxRectangle width="60" height="46" as="alternateBounds" />
          </mxGeometry>
        </mxCell>
        <mxCell id="qYvuUMzlHFwhiG2a9g9f-74" value="" style="connectable=0;recursiveResize=0;strokeColor=default;fillColor=none;align=center;whiteSpace=wrap;html=1;opacity=30;" parent="qYvuUMzlHFwhiG2a9g9f-71" vertex="1">
          <mxGeometry x="120" width="60" height="46" as="geometry">
            <mxRectangle width="60" height="46" as="alternateBounds" />
          </mxGeometry>
        </mxCell>
        <mxCell id="qYvuUMzlHFwhiG2a9g9f-80" style="connectable=0;recursiveResize=0;strokeColor=default;fillColor=none;align=center;whiteSpace=wrap;html=1;opacity=30;" parent="qYvuUMzlHFwhiG2a9g9f-71" vertex="1">
          <mxGeometry x="180" width="60" height="46" as="geometry">
            <mxRectangle width="60" height="46" as="alternateBounds" />
          </mxGeometry>
        </mxCell>
        <mxCell id="qYvuUMzlHFwhiG2a9g9f-83" style="connectable=0;recursiveResize=0;strokeColor=default;fillColor=none;align=center;whiteSpace=wrap;html=1;opacity=30;" parent="qYvuUMzlHFwhiG2a9g9f-71" vertex="1">
          <mxGeometry x="240" width="60" height="46" as="geometry">
            <mxRectangle width="60" height="46" as="alternateBounds" />
          </mxGeometry>
        </mxCell>
        <mxCell id="qYvuUMzlHFwhiG2a9g9f-86" style="connectable=0;recursiveResize=0;strokeColor=default;fillColor=none;align=center;whiteSpace=wrap;html=1;opacity=30;" parent="qYvuUMzlHFwhiG2a9g9f-71" vertex="1">
          <mxGeometry x="300" width="60" height="46" as="geometry">
            <mxRectangle width="60" height="46" as="alternateBounds" />
          </mxGeometry>
        </mxCell>
        <mxCell id="qYvuUMzlHFwhiG2a9g9f-89" style="connectable=0;recursiveResize=0;strokeColor=default;fillColor=none;align=center;whiteSpace=wrap;html=1;opacity=30;" parent="qYvuUMzlHFwhiG2a9g9f-71" vertex="1">
          <mxGeometry x="360" width="60" height="46" as="geometry">
            <mxRectangle width="60" height="46" as="alternateBounds" />
          </mxGeometry>
        </mxCell>
        <mxCell id="qYvuUMzlHFwhiG2a9g9f-92" style="connectable=0;recursiveResize=0;strokeColor=default;fillColor=none;align=center;whiteSpace=wrap;html=1;opacity=30;" parent="qYvuUMzlHFwhiG2a9g9f-71" vertex="1">
          <mxGeometry x="420" width="60" height="46" as="geometry">
            <mxRectangle width="60" height="46" as="alternateBounds" />
          </mxGeometry>
        </mxCell>
        <mxCell id="qYvuUMzlHFwhiG2a9g9f-135" style="connectable=0;recursiveResize=0;strokeColor=default;fillColor=none;align=center;whiteSpace=wrap;html=1;opacity=30;" parent="qYvuUMzlHFwhiG2a9g9f-71" vertex="1">
          <mxGeometry x="480" width="60" height="46" as="geometry">
            <mxRectangle width="60" height="46" as="alternateBounds" />
          </mxGeometry>
        </mxCell>
        <mxCell id="qYvuUMzlHFwhiG2a9g9f-75" style="shape=tableRow;horizontal=0;startSize=0;swimlaneHead=0;swimlaneBody=0;top=0;left=0;bottom=0;right=0;dropTarget=0;collapsible=0;recursiveResize=0;expand=0;fontStyle=0;fillColor=none;strokeColor=default;opacity=30;" parent="qYvuUMzlHFwhiG2a9g9f-66" vertex="1">
          <mxGeometry y="93" width="540" height="47" as="geometry" />
        </mxCell>
        <mxCell id="qYvuUMzlHFwhiG2a9g9f-76" value="window" style="connectable=0;recursiveResize=0;strokeColor=inherit;fillColor=none;align=center;whiteSpace=wrap;html=1;opacity=30;rowspan=3;colspan=1;" parent="qYvuUMzlHFwhiG2a9g9f-75" vertex="1">
          <mxGeometry width="60" height="141" as="geometry">
            <mxRectangle width="60" height="47" as="alternateBounds" />
          </mxGeometry>
        </mxCell>
        <mxCell id="qYvuUMzlHFwhiG2a9g9f-77" value="" style="connectable=0;recursiveResize=0;strokeColor=default;fillColor=none;align=center;whiteSpace=wrap;html=1;opacity=30;rowspan=3;colspan=1;" parent="qYvuUMzlHFwhiG2a9g9f-75" vertex="1">
          <mxGeometry x="60" width="60" height="141" as="geometry">
            <mxRectangle width="60" height="47" as="alternateBounds" />
          </mxGeometry>
        </mxCell>
        <mxCell id="qYvuUMzlHFwhiG2a9g9f-78" value="" style="connectable=0;recursiveResize=0;strokeColor=default;fillColor=none;align=center;whiteSpace=wrap;html=1;opacity=30;rowspan=3;colspan=1;" parent="qYvuUMzlHFwhiG2a9g9f-75" vertex="1">
          <mxGeometry x="120" width="60" height="141" as="geometry">
            <mxRectangle width="60" height="47" as="alternateBounds" />
          </mxGeometry>
        </mxCell>
        <mxCell id="qYvuUMzlHFwhiG2a9g9f-81" style="connectable=0;recursiveResize=0;strokeColor=default;fillColor=none;align=center;whiteSpace=wrap;html=1;opacity=30;rowspan=3;colspan=1;" parent="qYvuUMzlHFwhiG2a9g9f-75" vertex="1">
          <mxGeometry x="180" width="60" height="141" as="geometry">
            <mxRectangle width="60" height="47" as="alternateBounds" />
          </mxGeometry>
        </mxCell>
        <mxCell id="qYvuUMzlHFwhiG2a9g9f-84" style="connectable=0;recursiveResize=0;strokeColor=default;fillColor=none;align=center;whiteSpace=wrap;html=1;opacity=30;rowspan=3;colspan=1;" parent="qYvuUMzlHFwhiG2a9g9f-75" vertex="1">
          <mxGeometry x="240" width="60" height="141" as="geometry">
            <mxRectangle width="60" height="47" as="alternateBounds" />
          </mxGeometry>
        </mxCell>
        <mxCell id="qYvuUMzlHFwhiG2a9g9f-87" style="connectable=0;recursiveResize=0;strokeColor=default;fillColor=none;align=center;whiteSpace=wrap;html=1;opacity=30;rowspan=3;colspan=1;" parent="qYvuUMzlHFwhiG2a9g9f-75" vertex="1">
          <mxGeometry x="300" width="60" height="141" as="geometry">
            <mxRectangle width="60" height="47" as="alternateBounds" />
          </mxGeometry>
        </mxCell>
        <mxCell id="qYvuUMzlHFwhiG2a9g9f-90" style="connectable=0;recursiveResize=0;strokeColor=default;fillColor=none;align=center;whiteSpace=wrap;html=1;opacity=30;rowspan=3;colspan=1;" parent="qYvuUMzlHFwhiG2a9g9f-75" vertex="1">
          <mxGeometry x="360" width="60" height="141" as="geometry">
            <mxRectangle width="60" height="47" as="alternateBounds" />
          </mxGeometry>
        </mxCell>
        <mxCell id="qYvuUMzlHFwhiG2a9g9f-93" style="connectable=0;recursiveResize=0;strokeColor=default;fillColor=none;align=center;whiteSpace=wrap;html=1;opacity=30;rowspan=3;colspan=1;" parent="qYvuUMzlHFwhiG2a9g9f-75" vertex="1">
          <mxGeometry x="420" width="60" height="141" as="geometry">
            <mxRectangle width="60" height="47" as="alternateBounds" />
          </mxGeometry>
        </mxCell>
        <mxCell id="qYvuUMzlHFwhiG2a9g9f-136" style="connectable=0;recursiveResize=0;strokeColor=default;fillColor=none;align=center;whiteSpace=wrap;html=1;opacity=30;rowspan=3;colspan=1;" parent="qYvuUMzlHFwhiG2a9g9f-75" vertex="1">
          <mxGeometry x="480" width="60" height="141" as="geometry">
            <mxRectangle width="60" height="47" as="alternateBounds" />
          </mxGeometry>
        </mxCell>
        <mxCell id="qYvuUMzlHFwhiG2a9g9f-111" style="shape=tableRow;horizontal=0;startSize=0;swimlaneHead=0;swimlaneBody=0;top=0;left=0;bottom=0;right=0;dropTarget=0;collapsible=0;recursiveResize=0;expand=0;fontStyle=0;fillColor=none;strokeColor=default;opacity=30;" parent="qYvuUMzlHFwhiG2a9g9f-66" vertex="1">
          <mxGeometry y="140" width="540" height="47" as="geometry" />
        </mxCell>
        <mxCell id="qYvuUMzlHFwhiG2a9g9f-112" style="connectable=0;recursiveResize=0;strokeColor=inherit;fillColor=none;align=center;whiteSpace=wrap;html=1;opacity=30;" parent="qYvuUMzlHFwhiG2a9g9f-111" vertex="1" visible="0">
          <mxGeometry width="60" height="47" as="geometry">
            <mxRectangle width="60" height="47" as="alternateBounds" />
          </mxGeometry>
        </mxCell>
        <mxCell id="qYvuUMzlHFwhiG2a9g9f-113" style="connectable=0;recursiveResize=0;strokeColor=default;fillColor=none;align=center;whiteSpace=wrap;html=1;opacity=30;" parent="qYvuUMzlHFwhiG2a9g9f-111" vertex="1" visible="0">
          <mxGeometry x="60" width="60" height="47" as="geometry">
            <mxRectangle width="60" height="47" as="alternateBounds" />
          </mxGeometry>
        </mxCell>
        <mxCell id="qYvuUMzlHFwhiG2a9g9f-114" style="connectable=0;recursiveResize=0;strokeColor=default;fillColor=none;align=center;whiteSpace=wrap;html=1;opacity=30;" parent="qYvuUMzlHFwhiG2a9g9f-111" vertex="1" visible="0">
          <mxGeometry x="120" width="60" height="47" as="geometry">
            <mxRectangle width="60" height="47" as="alternateBounds" />
          </mxGeometry>
        </mxCell>
        <mxCell id="qYvuUMzlHFwhiG2a9g9f-115" style="connectable=0;recursiveResize=0;strokeColor=default;fillColor=none;align=center;whiteSpace=wrap;html=1;opacity=30;" parent="qYvuUMzlHFwhiG2a9g9f-111" vertex="1" visible="0">
          <mxGeometry x="180" width="60" height="47" as="geometry">
            <mxRectangle width="60" height="47" as="alternateBounds" />
          </mxGeometry>
        </mxCell>
        <mxCell id="qYvuUMzlHFwhiG2a9g9f-116" style="connectable=0;recursiveResize=0;strokeColor=default;fillColor=none;align=center;whiteSpace=wrap;html=1;opacity=30;" parent="qYvuUMzlHFwhiG2a9g9f-111" vertex="1" visible="0">
          <mxGeometry x="240" width="60" height="47" as="geometry">
            <mxRectangle width="60" height="47" as="alternateBounds" />
          </mxGeometry>
        </mxCell>
        <mxCell id="qYvuUMzlHFwhiG2a9g9f-117" style="connectable=0;recursiveResize=0;strokeColor=default;fillColor=none;align=center;whiteSpace=wrap;html=1;opacity=30;" parent="qYvuUMzlHFwhiG2a9g9f-111" vertex="1" visible="0">
          <mxGeometry x="300" width="60" height="47" as="geometry">
            <mxRectangle width="60" height="47" as="alternateBounds" />
          </mxGeometry>
        </mxCell>
        <mxCell id="qYvuUMzlHFwhiG2a9g9f-118" style="connectable=0;recursiveResize=0;strokeColor=default;fillColor=none;align=center;whiteSpace=wrap;html=1;opacity=30;" parent="qYvuUMzlHFwhiG2a9g9f-111" vertex="1" visible="0">
          <mxGeometry x="360" width="60" height="47" as="geometry">
            <mxRectangle width="60" height="47" as="alternateBounds" />
          </mxGeometry>
        </mxCell>
        <mxCell id="qYvuUMzlHFwhiG2a9g9f-119" style="connectable=0;recursiveResize=0;strokeColor=default;fillColor=none;align=center;whiteSpace=wrap;html=1;opacity=30;" parent="qYvuUMzlHFwhiG2a9g9f-111" vertex="1" visible="0">
          <mxGeometry x="420" width="60" height="47" as="geometry">
            <mxRectangle width="60" height="47" as="alternateBounds" />
          </mxGeometry>
        </mxCell>
        <mxCell id="qYvuUMzlHFwhiG2a9g9f-137" style="connectable=0;recursiveResize=0;strokeColor=default;fillColor=none;align=center;whiteSpace=wrap;html=1;opacity=30;" parent="qYvuUMzlHFwhiG2a9g9f-111" vertex="1" visible="0">
          <mxGeometry x="480" width="60" height="47" as="geometry">
            <mxRectangle width="60" height="47" as="alternateBounds" />
          </mxGeometry>
        </mxCell>
        <mxCell id="qYvuUMzlHFwhiG2a9g9f-124" style="shape=tableRow;horizontal=0;startSize=0;swimlaneHead=0;swimlaneBody=0;top=0;left=0;bottom=0;right=0;dropTarget=0;collapsible=0;recursiveResize=0;expand=0;fontStyle=0;fillColor=none;strokeColor=default;opacity=30;" parent="qYvuUMzlHFwhiG2a9g9f-66" vertex="1">
          <mxGeometry y="187" width="540" height="47" as="geometry" />
        </mxCell>
        <mxCell id="qYvuUMzlHFwhiG2a9g9f-125" style="connectable=0;recursiveResize=0;strokeColor=inherit;fillColor=none;align=center;whiteSpace=wrap;html=1;opacity=30;" parent="qYvuUMzlHFwhiG2a9g9f-124" vertex="1" visible="0">
          <mxGeometry width="60" height="47" as="geometry">
            <mxRectangle width="60" height="47" as="alternateBounds" />
          </mxGeometry>
        </mxCell>
        <mxCell id="qYvuUMzlHFwhiG2a9g9f-126" style="connectable=0;recursiveResize=0;strokeColor=default;fillColor=none;align=center;whiteSpace=wrap;html=1;opacity=30;" parent="qYvuUMzlHFwhiG2a9g9f-124" vertex="1" visible="0">
          <mxGeometry x="60" width="60" height="47" as="geometry">
            <mxRectangle width="60" height="47" as="alternateBounds" />
          </mxGeometry>
        </mxCell>
        <mxCell id="qYvuUMzlHFwhiG2a9g9f-127" style="connectable=0;recursiveResize=0;strokeColor=default;fillColor=none;align=center;whiteSpace=wrap;html=1;opacity=30;" parent="qYvuUMzlHFwhiG2a9g9f-124" vertex="1" visible="0">
          <mxGeometry x="120" width="60" height="47" as="geometry">
            <mxRectangle width="60" height="47" as="alternateBounds" />
          </mxGeometry>
        </mxCell>
        <mxCell id="qYvuUMzlHFwhiG2a9g9f-128" style="connectable=0;recursiveResize=0;strokeColor=default;fillColor=none;align=center;whiteSpace=wrap;html=1;opacity=30;" parent="qYvuUMzlHFwhiG2a9g9f-124" vertex="1" visible="0">
          <mxGeometry x="180" width="60" height="47" as="geometry">
            <mxRectangle width="60" height="47" as="alternateBounds" />
          </mxGeometry>
        </mxCell>
        <mxCell id="qYvuUMzlHFwhiG2a9g9f-129" style="connectable=0;recursiveResize=0;strokeColor=default;fillColor=none;align=center;whiteSpace=wrap;html=1;opacity=30;" parent="qYvuUMzlHFwhiG2a9g9f-124" vertex="1" visible="0">
          <mxGeometry x="240" width="60" height="47" as="geometry">
            <mxRectangle width="60" height="47" as="alternateBounds" />
          </mxGeometry>
        </mxCell>
        <mxCell id="qYvuUMzlHFwhiG2a9g9f-130" style="connectable=0;recursiveResize=0;strokeColor=default;fillColor=none;align=center;whiteSpace=wrap;html=1;opacity=30;" parent="qYvuUMzlHFwhiG2a9g9f-124" vertex="1" visible="0">
          <mxGeometry x="300" width="60" height="47" as="geometry">
            <mxRectangle width="60" height="47" as="alternateBounds" />
          </mxGeometry>
        </mxCell>
        <mxCell id="qYvuUMzlHFwhiG2a9g9f-131" style="connectable=0;recursiveResize=0;strokeColor=default;fillColor=none;align=center;whiteSpace=wrap;html=1;opacity=30;" parent="qYvuUMzlHFwhiG2a9g9f-124" vertex="1" visible="0">
          <mxGeometry x="360" width="60" height="47" as="geometry">
            <mxRectangle width="60" height="47" as="alternateBounds" />
          </mxGeometry>
        </mxCell>
        <mxCell id="qYvuUMzlHFwhiG2a9g9f-132" style="connectable=0;recursiveResize=0;strokeColor=default;fillColor=none;align=center;whiteSpace=wrap;html=1;opacity=30;" parent="qYvuUMzlHFwhiG2a9g9f-124" vertex="1" visible="0">
          <mxGeometry x="420" width="60" height="47" as="geometry">
            <mxRectangle width="60" height="47" as="alternateBounds" />
          </mxGeometry>
        </mxCell>
        <mxCell id="qYvuUMzlHFwhiG2a9g9f-138" style="connectable=0;recursiveResize=0;strokeColor=default;fillColor=none;align=center;whiteSpace=wrap;html=1;opacity=30;" parent="qYvuUMzlHFwhiG2a9g9f-124" vertex="1" visible="0">
          <mxGeometry x="480" width="60" height="47" as="geometry">
            <mxRectangle width="60" height="47" as="alternateBounds" />
          </mxGeometry>
        </mxCell>
        <mxCell id="qYvuUMzlHFwhiG2a9g9f-97" value="t10" style="text;html=1;align=center;verticalAlign=middle;whiteSpace=wrap;rounded=0;opacity=30;strokeColor=none;" parent="1" vertex="1">
          <mxGeometry x="280" y="370" width="60" height="30" as="geometry" />
        </mxCell>
        <mxCell id="qYvuUMzlHFwhiG2a9g9f-98" value="t20" style="text;html=1;align=center;verticalAlign=middle;whiteSpace=wrap;rounded=0;opacity=30;strokeColor=none;" parent="1" vertex="1">
          <mxGeometry x="340" y="370" width="60" height="30" as="geometry" />
        </mxCell>
        <mxCell id="qYvuUMzlHFwhiG2a9g9f-99" value="t30" style="text;html=1;align=center;verticalAlign=middle;whiteSpace=wrap;rounded=0;opacity=30;strokeColor=none;" parent="1" vertex="1">
          <mxGeometry x="400" y="370" width="60" height="30" as="geometry" />
        </mxCell>
        <mxCell id="qYvuUMzlHFwhiG2a9g9f-100" value="t40" style="text;html=1;align=center;verticalAlign=middle;whiteSpace=wrap;rounded=0;opacity=30;strokeColor=none;" parent="1" vertex="1">
          <mxGeometry x="460" y="370" width="60" height="30" as="geometry" />
        </mxCell>
        <mxCell id="qYvuUMzlHFwhiG2a9g9f-101" value="t50" style="text;html=1;align=center;verticalAlign=middle;whiteSpace=wrap;rounded=0;opacity=30;strokeColor=none;" parent="1" vertex="1">
          <mxGeometry x="520" y="370" width="60" height="30" as="geometry" />
        </mxCell>
        <mxCell id="qYvuUMzlHFwhiG2a9g9f-102" value="t60" style="text;html=1;align=center;verticalAlign=middle;whiteSpace=wrap;rounded=0;opacity=30;strokeColor=none;" parent="1" vertex="1">
          <mxGeometry x="580" y="370" width="60" height="30" as="geometry" />
        </mxCell>
        <mxCell id="qYvuUMzlHFwhiG2a9g9f-104" value="A" style="ellipse;whiteSpace=wrap;html=1;fillColor=#97D077;strokeColor=none;" parent="1" vertex="1">
          <mxGeometry x="412" y="416" width="30" height="30" as="geometry" />
        </mxCell>
        <mxCell id="qYvuUMzlHFwhiG2a9g9f-105" value="B" style="ellipse;whiteSpace=wrap;html=1;fillColor=#97D077;strokeColor=none;" parent="1" vertex="1">
          <mxGeometry x="475" y="416" width="30" height="30" as="geometry" />
        </mxCell>
        <mxCell id="qYvuUMzlHFwhiG2a9g9f-106" value="C" style="ellipse;whiteSpace=wrap;html=1;fillColor=#97D077;strokeColor=none;" parent="1" vertex="1">
          <mxGeometry x="640" y="416" width="30" height="30" as="geometry" />
        </mxCell>
        <mxCell id="qYvuUMzlHFwhiG2a9g9f-107" value="" style="shape=crossbar;whiteSpace=wrap;html=1;rounded=1;strokeWidth=3;fillColor=#dae8fc;strokeColor=#6c8ebf;" parent="1" vertex="1">
          <mxGeometry x="250" y="461" width="180" height="20" as="geometry" />
        </mxCell>
        <mxCell id="qYvuUMzlHFwhiG2a9g9f-108" value="w1" style="text;html=1;align=center;verticalAlign=middle;whiteSpace=wrap;rounded=0;" parent="1" vertex="1">
          <mxGeometry x="310" y="446" width="60" height="30" as="geometry" />
        </mxCell>
        <mxCell id="qYvuUMzlHFwhiG2a9g9f-109" value="" style="shape=crossbar;whiteSpace=wrap;html=1;rounded=1;strokeWidth=3;fillColor=#dae8fc;strokeColor=#6c8ebf;" parent="1" vertex="1">
          <mxGeometry x="370" y="481" width="180" height="20" as="geometry" />
        </mxCell>
        <mxCell id="qYvuUMzlHFwhiG2a9g9f-110" value="w2" style="text;html=1;align=center;verticalAlign=middle;whiteSpace=wrap;rounded=0;" parent="1" vertex="1">
          <mxGeometry x="430" y="470" width="60" height="30" as="geometry" />
        </mxCell>
        <mxCell id="qYvuUMzlHFwhiG2a9g9f-120" value="" style="shape=crossbar;whiteSpace=wrap;html=1;rounded=1;strokeWidth=3;fillColor=#dae8fc;strokeColor=#6c8ebf;" parent="1" vertex="1">
          <mxGeometry x="430" y="510" width="180" height="20" as="geometry" />
        </mxCell>
        <mxCell id="qYvuUMzlHFwhiG2a9g9f-121" value="w3" style="text;html=1;align=center;verticalAlign=middle;whiteSpace=wrap;rounded=0;" parent="1" vertex="1">
          <mxGeometry x="480" y="500" width="60" height="30" as="geometry" />
        </mxCell>
        <mxCell id="qYvuUMzlHFwhiG2a9g9f-122" value="" style="shape=crossbar;whiteSpace=wrap;html=1;rounded=1;strokeWidth=3;fillColor=#dae8fc;strokeColor=#6c8ebf;" parent="1" vertex="1">
          <mxGeometry x="490" y="530" width="180" height="20" as="geometry" />
        </mxCell>
        <mxCell id="qYvuUMzlHFwhiG2a9g9f-123" value="w4" style="text;html=1;align=center;verticalAlign=middle;whiteSpace=wrap;rounded=0;" parent="1" vertex="1">
          <mxGeometry x="555" y="517" width="60" height="30" as="geometry" />
        </mxCell>
        <mxCell id="qYvuUMzlHFwhiG2a9g9f-133" value="" style="shape=crossbar;whiteSpace=wrap;html=1;rounded=1;strokeWidth=3;fillColor=#dae8fc;strokeColor=#6c8ebf;" parent="1" vertex="1">
          <mxGeometry x="550" y="574" width="180" height="20" as="geometry" />
        </mxCell>
        <mxCell id="qYvuUMzlHFwhiG2a9g9f-144" value="w5" style="text;html=1;align=center;verticalAlign=middle;whiteSpace=wrap;rounded=0;" parent="1" vertex="1">
          <mxGeometry x="610" y="564" width="60" height="30" as="geometry" />
        </mxCell>
        <mxCell id="qYvuUMzlHFwhiG2a9g9f-145" value="t70" style="text;html=1;align=center;verticalAlign=middle;whiteSpace=wrap;rounded=0;opacity=30;strokeColor=none;" parent="1" vertex="1">
          <mxGeometry x="640" y="370" width="60" height="30" as="geometry" />
        </mxCell>
      </root>
    </mxGraphModel>
  </diagram>
</mxfile>
